/vscmnt/brussel_pixiu_data/_data_brussel/112/vsc11236/PredSimResults/SUBJ04mtu3D/worker5.mot
version=1
nRows=7
nColumns=50
inDegrees=yes
endheader
                time	         pelvis_tilt	         pelvis_list	     pelvis_rotation	           pelvis_tx	           pelvis_ty	           pelvis_tz	       hip_flexion_r	     hip_adduction_r	      hip_rotation_r	        knee_angle_r	       ankle_angle_r	         mtp_angle_r	       hip_flexion_l	     hip_adduction_l	      hip_rotation_l	        knee_angle_l	       ankle_angle_l	         mtp_angle_l	    lumbar_extension	      lumbar_bending	     lumbar_rotation	 ercspn_r/activation	 intobl_r/activation	 extobl_r/activation	    abd_r/activation	    add_r/activation	hamstrings_r/activation	bifemsh_r/activation	glut_max_r/activation	iliopsoas_r/activation	rect_fem_r/activation	  vasti_r/activation	gastroc_r/activation	 soleus_r/activation	tib_ant_r/activation	 ercspn_l/activation	 intobl_l/activation	 extobl_l/activation	    abd_l/activation	    add_l/activation	hamstrings_l/activation	bifemsh_l/activation	glut_max_l/activation	iliopsoas_l/activation	rect_fem_l/activation	  vasti_l/activation	gastroc_l/activation	 soleus_l/activation	tib_ant_l/activation	
          1.35681554	         -2.97830518	          0.83999607	          8.39845404	          1.27540661	          0.88084232	         -0.01043633	         29.04257820	         -3.56463480	        -10.26267618	         -8.92452735	          4.67387836	          0.23484172	        -13.15788954	          0.07423519	         -8.85830091	         -7.21885701	          9.80953816	         25.23043569	        -13.97870686	         -4.21610067	         -6.85444111	          0.01892991	          0.23312829	          0.02260286	          0.01234458	          0.25849774	          0.07668535	          0.07571484	          0.01414536	          0.16071291	          0.02576487	          0.01503928	          0.01767983	          0.01621883	          0.32390104	          0.01913745	          0.01000009	          0.01000026	          0.05735386	          0.01000207	          0.03016111	          0.13459350	          0.01620697	          0.01000125	          0.01000038	          0.01000030	          0.35760256	          0.20340559	          0.01000004	
          1.37038370	         -3.05301484	          0.85930676	          8.18217250	          1.29167864	          0.87875495	         -0.01013820	         28.97517382	         -3.51622838	        -10.38226530	        -10.53479732	          4.36764894	          0.22384178	        -13.84577930	         -0.02602477	         -9.52742402	         -7.83380785	          9.33485809	         26.66635167	        -13.47970103	         -3.58469373	         -6.86492339	          0.01543876	          0.22955220	          0.01843423	          0.03355804	          0.21082364	          0.07106370	          0.06175124	          0.03179572	          0.13107269	          0.02101310	          0.01226563	          0.01441921	          0.01322763	          0.35923048	          0.02391511	          0.01000003	          0.01000023	          0.04677611	          0.01000095	          0.02459916	          0.10977057	          0.01321795	          0.01000062	          0.01000031	          0.01000043	          0.33075442	          0.19485678	          0.01000003	
          1.38395186	         -3.11221101	          0.81980655	          7.91117387	          1.30825269	          0.87696697	         -0.00975692	         28.84700089	         -3.42904907	        -10.53798166	        -12.00945318	          3.86189082	          0.21278432	        -14.40599928	         -0.20793137	        -10.23014685	         -8.73182146	          8.76067354	         28.13712018	        -12.95797637	         -2.86328012	         -6.84661285	          0.02350537	          0.18721601	          0.01503442	          0.05688357	          0.21427748	          0.06950597	          0.05036272	          0.03467183	          0.10689900	          0.01713770	          0.05637256	          0.01175993	          0.01078810	          0.38945175	          0.03727186	          0.01000001	          0.01000008	          0.03814921	          0.01000037	          0.02006285	          0.08952570	          0.01078018	          0.01502987	          0.01000235	          0.01000014	          0.30363046	          0.18155823	          0.01000004	
          1.39752001	         -3.15610287	          0.73606309	          7.58830859	          1.32498090	          0.87565578	         -0.00926375	         28.66297191	         -3.29931323	        -10.77955782	        -13.40278504	          3.37324798	          0.19090915	        -14.76312825	         -0.47191374	        -10.96758801	        -10.02847152	          8.05375078	         29.63670057	        -12.43620122	         -2.07559053	         -6.79742697	          0.02240591	          0.15268782	          0.01226164	          0.07690632	          0.20872230	          0.06708096	          0.04107467	          0.02827800	          0.08718366	          0.01397704	          0.10758339	          0.01000027	          0.01000018	          0.41767024	          0.04665601	          0.01000002	          0.01000008	          0.03111337	          0.01000051	          0.01636426	          0.07301456	          0.01000011	          0.01225829	          0.01000108	          0.01040192	          0.24763817	          0.16637072	          0.01000003	
          1.41108817	         -3.18506756	          0.60386906	          7.22867431	          1.34176853	          0.87493925	         -0.00865668	         28.36692618	         -3.11154068	        -11.08566148	        -14.65395002	          3.07634353	          0.16889283	        -14.86790723	         -0.83973904	        -11.73115589	        -11.79316281	          7.20155574	         31.10426803	        -11.92543871	         -1.22406814	         -6.71904022	          0.01862259	          0.12452766	          0.01000028	          0.10404374	          0.17680671	          0.06599459	          0.03349980	          0.03478005	          0.07110441	          0.01139934	          0.15119821	          0.01000033	          0.01000019	          0.42508885	          0.07333028	          0.01000003	          0.01000007	          0.02537514	          0.01000052	          0.01335882	          0.05954857	          0.01000009	          0.01000083	          0.01000036	          0.02136929	          0.20196634	          0.13830731	          0.01000003	
          1.42465632	         -3.20046614	          0.42373945	          6.84516929	          1.35848951	          0.87492216	         -0.00794280	         27.93704981	         -2.84800260	        -11.37903127	        -15.71234519	          2.98758393	          0.15000924	        -14.70635174	         -1.32154150	        -12.51193283	        -14.02154283	          6.18172234	         32.42532048	        -11.43850282	         -0.31589645	         -6.61528105	          0.01518857	          0.10156106	          0.01000017	          0.12785918	          0.16189127	          0.06393081	          0.02732209	          0.03032707	          0.05799065	          0.01000019	          0.17473250	          0.01000110	          0.01000113	          0.41666287	          0.09470044	          0.01000008	          0.01000008	          0.02069522	          0.01000205	          0.07627895	          0.04856610	          0.01323575	          0.01000033	          0.01000017	          0.02153616	          0.16471775	          0.11279935	          0.01000003	
          1.43822448	         -3.20345171	          0.20482801	          6.45159028	          1.37501097	          0.87562871	         -0.00714018	         27.38631306	         -2.50802849	        -11.58981169	        -16.58456058	          3.09672133	          0.13849784	        -14.25679562	         -1.92065347	        -13.30283274	        -16.72820867	          4.99278246	         33.46957497	        -10.98930718	          0.63411251	         -6.49173708	          0.01238978	          0.08283019	          0.01000046	          0.13847437	          0.16901271	          0.06689946	          0.02228496	          0.02473426	          0.04729546	          0.01000017	          0.18355485	          0.01000027	          0.01000014	          0.39554294	          0.09394174	          0.01546192	          0.01000007	          0.01687841	          0.06696662	          0.09036417	          0.03960915	          0.01226146	          0.01000026	          0.01000012	          0.01756428	          0.13433890	          0.09199581	          0.01000002	
